REM DATE 2011
REM DISCID 5C0B7707
REM COMMENT "ExactAudioCopy v1.0b1"
PERFORMER "Wolves In The Throne Room"
TITLE "Celestial Lineage"
FILE "01 - Thuja Magus Imperium.wav" WAVE
  TRACK 01 AUDIO
    TITLE "Thuja Magus Imperium "
    PERFORMER "Wolves In The Throne Room"
    INDEX 01 00:00:00
FILE "02 - Permanent Changes In Consciousness.wav" WAVE
  TRACK 02 AUDIO
    TITLE "Permanent Changes In Consciousness"
    PERFORMER "Wolves In The Throne Room"
    INDEX 01 00:00:00
FILE "03 - Subterranean Initiation.wav" WAVE
  TRACK 03 AUDIO
    TITLE "Subterranean Initiation"
    PERFORMER "Wolves In The Throne Room"
    INDEX 01 00:00:00
FILE "04 - Rainbow Illness.wav" WAVE
  TRACK 04 AUDIO
    TITLE "Rainbow Illness"
    PERFORMER "Wolves In The Throne Room"
    INDEX 01 00:00:00
FILE "05 - Woodland Cathedral.wav" WAVE
  TRACK 05 AUDIO
    TITLE "Woodland Cathedral"
    PERFORMER "Wolves In The Throne Room"
    INDEX 01 00:00:00
FILE "06 - Astral Blood.wav" WAVE
  TRACK 06 AUDIO
    TITLE "Astral Blood"
    PERFORMER "Wolves In The Throne Room"
    INDEX 01 00:00:00
FILE "07 - Prayer Of Transformation.wav" WAVE
  TRACK 07 AUDIO
    TITLE "Prayer Of Transformation"
    PERFORMER "Wolves In The Throne Room"
    INDEX 01 00:00:00
